# xmcd
#
# Track frame offsets: 
#        150
#        16180
#        29270
#        50840
#        63470
#        76145
#        90620
#        107795
#        122870
#        137495
#        161345
#        173755
#        190330
#        202145
#        219880
#        237205
#        248645
#        263680
#        285655
#
# Disc length: 4053 seconds
#
# Revision: 0
# Processed by: cddbd v1.4PL0 Copyright (c) Steve Scherf et al.
# Submitted via: ExactAudioCopy v0.90b4
#
DISCID=030fd313
DTITLE=Bloodshot Eyes - Ain't That Thing Too Cool For You
DYEAR=1998
DGENRE=Blues
TTITLE0=Ain't That Thing Too Cool For You
TTITLE1=Love Love Love
TTITLE2=Too Easy
TTITLE3=Don't Sit On It Woman
TTITLE4=I Gots To Know
TTITLE5=Iko Iko
TTITLE6=Frame Dame
TTITLE7=Rocket 88
TTITLE8=Tail On
TTITLE9=Strange
TTITLE10=At The Barrelhouse
TTITLE11=Fat Cat In Your Hat Jack
TTITLE12=Jack The Rabbit
TTITLE13=Curtains Of Love
TTITLE14=Wino
TTITLE15=I'm The Richest Man I Know
TTITLE16=Bloodshot Eyes
TTITLE17=No Problem
TTITLE18=Blues In My Shoes
EXTD=
EXTT0=
EXTT1=
EXTT2=
EXTT3=
EXTT4=
EXTT5=
EXTT6=
EXTT7=
EXTT8=
EXTT9=
EXTT10=
EXTT11=
EXTT12=
EXTT13=
EXTT14=
EXTT15=
EXTT16=
EXTT17=
EXTT18=
PLAYORDER=
